<svg xmlns="http://www.w3.org/2000/svg" width="500" height="200" version="1.0" viewBox="0 0 375 157.92"><defs><clipPath id="a"><path d="M.094 0h374.808v149.926H.094Zm0 0"/></clipPath><clipPath id="c"><path d="M150 9h24v25h-24Zm0 0"/></clipPath><clipPath id="d"><path d="M62.184-65.277 344.375 39.984l-60.898 163.258L1.285 97.98Zm0 0"/></clipPath><clipPath id="e"><path d="M62.184-65.277 344.375 39.984l-60.898 163.258L1.285 97.98Zm0 0"/></clipPath><clipPath id="f"><path d="M12 16h323v108H12Zm0 0"/></clipPath><clipPath id="g"><path d="M62.184-65.277 344.375 39.984l-60.898 163.258L1.285 97.98Zm0 0"/></clipPath><clipPath id="h"><path d="M62.184-65.277 344.375 39.984l-60.898 163.258L1.285 97.98Zm0 0"/></clipPath><clipPath id="i"><path d="M91.84 68.879h42.578v42.574H91.84Zm0 0"/></clipPath><clipPath id="b"><path d="M0 0h375v150H0z"/></clipPath></defs><g clip-path="url(#a)"><g clip-path="url(#b)"><g clip-path="url(#c)"><g clip-path="url(#d)"><g clip-path="url(#e)"><path fill="#26d153" d="M173.5 20.469c-7.32 2.449-9.016 4.527-9.957 12.187-.063.48-.727.551-.883.09-2.45-7.32-4.527-9.02-12.187-9.96-.485-.06-.551-.727-.09-.884 7.32-2.449 9.02-4.527 9.96-12.187.06-.48.727-.55.884-.09 2.445 7.32 4.527 9.02 12.187 9.96.48.06.55.727.086.884m0 0"/></g></g></g><g clip-path="url(#f)"><g clip-path="url(#g)"><g clip-path="url(#h)"><path fill="#26d153" d="M39.988 111.012c-17.148-6.395-26.84-14.91-27.836-24.782-1.379-13.714 14.227-28.214 43.942-40.82 29.394-12.472 69.199-21.715 112.074-26.027 42.883-4.309 83.727-3.184 115.016 3.18 31.632 6.43 49.816 17.53 51.191 31.246 1.105 10.968-8.59 22.437-28.035 33.164a.923.923 0 0 1-1.258-.364.92.92 0 0 1 .363-1.254c18.75-10.34 28.114-21.183 27.09-31.355-1.293-12.844-18.96-23.367-49.719-29.617-31.113-6.328-71.761-7.445-114.46-3.149-42.7 4.297-82.31 13.493-111.54 25.891-28.906 12.254-44.113 26.078-42.82 38.922 1.293 12.84 18.95 23.36 49.719 29.621 31.113 6.324 71.762 7.445 114.46 3.148a.92.92 0 0 1 1.012.829.926.926 0 0 1-.828 1.015c-42.879 4.317-83.722 3.184-115.011-3.176-8.868-1.804-16.684-3.972-23.36-6.464Zm0 0"/></g></g></g><path fill="#054b3a" d="M47.935 70.525q-3.423-2.918-6.313-4.172-2.895-1.265-7.078-1.265-3.422 0-6.234 1.171a13.9 13.9 0 0 0-4.813 3.313q-2.004 2.127-3.14 5.062-1.125 2.925-1.125 6.516 0 3.518 1.125 6.484 1.136 2.971 3.234 5.188a15.2 15.2 0 0 0 4.938 3.484q2.842 1.252 6.265 1.25c1.344 0 2.695-.273 4.063-.828a15.2 15.2 0 0 0 3.797-2.265 18.3 18.3 0 0 0 3.109-3.235q1.342-1.794 2-3.719h-14.64V74.291h30.546v6.53q-.002 4.768-1.469 9.454a34 34 0 0 1-4.14 8.703c-2.563 3.73-5.899 6.766-10 9.11-4.094 2.343-8.852 3.515-14.266 3.515q-6.281 0-11.719-2.422-5.438-2.42-9.453-6.562c-2.68-2.758-4.781-5.969-6.312-9.625Q4.013 87.51 4.013 81.322q0-6.105 2.297-11.625 2.295-5.53 6.312-9.672 4.015-4.137 9.453-6.562 5.438-2.438 11.72-2.438 4.011 0 7.609.797 3.609.798 6.703 2.14 3.092 1.33 5.593 3.016 2.515 1.676 4.438 3.422ZM84.664 52.04v58.563h-13.39V52.041ZM133.86 90.275c0 2.844-.56 5.555-1.672 8.125a22.6 22.6 0 0 1-4.563 6.813 21.8 21.8 0 0 1-6.703 4.687q-3.797 1.701-8.063 1.703c-2.843 0-5.539-.57-8.078-1.703a21.7 21.7 0 0 1-6.703-4.687 22.7 22.7 0 0 1-4.547-6.813 20.2 20.2 0 0 1-1.672-8.125q-.002-4.266 1.672-8.11a22.1 22.1 0 0 1 4.547-6.78 22.5 22.5 0 0 1 6.703-4.688 19 19 0 0 1 8.078-1.766q4.344.001 8.141 1.766a21.7 21.7 0 0 1 6.656 4.719 23 23 0 0 1 4.532 6.828 20 20 0 0 1 1.671 8.031m-21 8.61a7.6 7.6 0 0 0 3.25-.704 8.1 8.1 0 0 0 2.593-1.922 8.7 8.7 0 0 0 1.672-2.765 8.9 8.9 0 0 0 .594-3.219 8.9 8.9 0 0 0-.594-3.219 9.2 9.2 0 0 0-1.625-2.765 7.4 7.4 0 0 0-2.594-1.922c-1.03-.477-2.164-.719-3.39-.719q-1.753.002-3.22.719a8.1 8.1 0 0 0-2.562 1.922 9 9 0 0 0-1.671 2.765 9.1 9.1 0 0 0-.579 3.219 9.1 9.1 0 0 0 .579 3.219 9 9 0 0 0 1.671 2.765 8.2 8.2 0 0 0 2.594 1.922q1.512.703 3.281.703M153.422 69.931v24.266q-.002 1.769.922 3.156.92 1.376 3.36 1.375 2.419.001 3.343-1.375.92-1.387.922-3.156V69.93h13.375v24.266q-.002 1.769.922 3.156.92 1.376 3.36 1.375 2.418.001 3.343-1.375.92-1.387.922-3.156V69.93h13.39v26.532q0 3.093-1.312 5.859a15.1 15.1 0 0 1-3.563 4.812c-1.5 1.368-3.296 2.454-5.39 3.266q-3.128 1.201-6.813 1.203-3.175 0-6.28-1.578-3.096-1.591-5.267-4.11-2.173 2.519-5.265 4.11-3.094 1.576-6.281 1.578-3.69 0-6.829-1.203-3.128-1.216-5.39-3.266a15.1 15.1 0 0 1-3.547-4.812 13.6 13.6 0 0 1-1.297-5.86v-26.53Zm0 0"/><g clip-path="url(#i)"><path fill="#26d153" d="M134.469 90.191c-14.215 3.922-17.395 7.102-21.313 21.313-3.922-14.211-7.101-17.39-21.316-21.313 14.215-3.921 17.394-7.101 21.316-21.312 3.918 14.21 7.098 17.39 21.313 21.312m0 0"/></g><path fill="#054b3a" d="M222.614 52.04v20.485h11.547V52.041h14.562v58.562h-14.562V86.588h-11.547v24.015h-14.562V52.041ZM276.747 95.79l-5.11-8.03 10.954-7.188q-1.424-.844-2.672-1.125a11 11 0 0 0-2.516-.297q-1.921.001-3.469.875a8.9 8.9 0 0 0-2.672 2.344q-1.126 1.455-1.765 3.344a12.2 12.2 0 0 0-.625 3.89q0 2.176.75 4.016.762 1.846 2.015 3.265a9.1 9.1 0 0 0 2.875 2.22 7.7 7.7 0 0 0 3.407.796q3.498 0 6.843-2.547 3.358-2.56 5.11-6.578l9.625 4.938a27.2 27.2 0 0 1-3.844 6.53 26.4 26.4 0 0 1-5.281 5.016 23.5 23.5 0 0 1-6.313 3.22 22.3 22.3 0 0 1-7.062 1.124c-2.844 0-5.54-.57-8.078-1.703a21.7 21.7 0 0 1-6.703-4.687 22.7 22.7 0 0 1-4.547-6.813 20.2 20.2 0 0 1-1.672-8.125c0-2.844.554-5.547 1.672-8.11a22.1 22.1 0 0 1 4.547-6.78 22.5 22.5 0 0 1 6.703-4.688 19 19 0 0 1 8.078-1.766q7.013 0 11.828 3.516 4.81 3.517 8.078 9.453ZM348.184 110.603H334.81V91.525q0-5.016-2.343-7.687-2.344-2.687-7.125-2.688-1.829.002-3.516.719a9.7 9.7 0 0 0-2.922 1.875 9 9 0 0 0-2.015 2.812 8.2 8.2 0 0 0-.75 3.469q-.001 4.267 2.546 6.813 2.562 2.547 6.407 2.546c1.226 0 2.375-.109 3.437-.328a18 18 0 0 0 2.922-.843v11.046a11.7 11.7 0 0 1-4.094 1.844q-2.172.499-4.937.5-3.767 0-7.328-1.547a19.5 19.5 0 0 1-6.266-4.343q-2.72-2.813-4.39-6.704c-1.118-2.593-1.672-5.476-1.672-8.656 0-3.008.554-5.812 1.671-8.406q1.67-3.89 4.594-6.781 2.936-2.888 7.031-4.563 4.091-1.67 9.032-1.672 5.28.002 9.547 1.469 4.265 1.471 7.28 4.063a17.8 17.8 0 0 1 4.641 6.156q1.624 3.55 1.625 7.734ZM369.942 52.04v58.563h-13.39V52.041Zm0 0"/></g></g></svg>